# xmcd CD database file
# Copyright (C) 1993-1998 Ti Kan
#
# Track frame offsets:
#  200
#  5035
#  13142
#  25587
#  39675
#  55935
#  74030
#  93087
#  117180
#  132020
#  137020
#  181450
#  197375
#  215372
#  236490
#  257080
#
# Disc length: 3513 seconds
#
# Revision: 1
# Processed by: cddbd v1.4b41PL1 Copyright (c) Steve Scherf et al.
# Submitted via: CDWizzard Release:4.35
#
DISCID=db0db710
DTITLE=Various Artist - Music and Truth - Songs From Hanover College
DYEAR=1900
DGENRE=
TTITLE0=The Hanover College Fight Song
TTITLE1=Don't Get Around Much Anymore
TTITLE2=Star of the Country Down
TTITLE3=The Tao of My Way
TTITLE4=Sing Me to Heaven
TTITLE5=As Angels Fly
TTITLE6=Concertino in A Minor, Opus 3, Number 6
TTITLE7=Center of the Earth
TTITLE8=The Longest Time
TTITLE9=Come to Zion, Sin-Sick Souls
TTITLE10=Chorale and Shaker Dance
TTITLE11=Lily's Song
TTITLE12=Danza de la Mosa Donosa
TTITLE13=If I Never Knew You
TTITLE14=So Lunar Light
TTITLE15=The Irish Blessing
EXTD=
EXTT0=The Hanover College Band
EXTT1=Gillian Watson
EXTT2=The Redcaps
EXTT3=Nyame
EXTT4=The Hanover College Choir
EXTT5=Short Notis
EXTT6=Allison Correll and Alison Waughn
EXTT7=Far East
EXTT8=One Night Stand
EXTT9=The Hanover College Choir
EXTT10=The Hanover College Band
EXTT11=Adrinkra
EXTT12=Ian Moschenross
EXTT13=Fire and Ice
EXTT14=Michelle James
EXTT15=Members of the 1996-1997 Hanover College Choir
PLAYORDER=
